<?xml version="1.0" encoding="UTF-8" standalone="no"?>
<!DOCTYPE svg PUBLIC "-//W3C//DTD SVG 1.1//EN"
 "http://www.w3.org/Graphics/SVG/1.1/DTD/svg11.dtd">
<!-- Generated by graphviz version 2.36.0 (20140111.2315)
 -->
<!-- Title: A Pages: 1 -->
<svg width="276pt" height="175pt"
 viewBox="0.00 0.00 276.00 175.00" xmlns="http://www.w3.org/2000/svg" xmlns:xlink="http://www.w3.org/1999/xlink">
<g id="graph0" class="graph" transform="scale(1 1) rotate(0) translate(4 171)">
<title>A</title>
<polygon fill="white" stroke="none" points="-4,4 -4,-171 272,-171 272,4 -4,4"/>
<text text-anchor="middle" x="134" y="-7.8" font-family="Times,serif" font-size="14.00">(2) flattened cfg: X&#45;&gt;{A,B,C,D}&#45;&gt;X</text>
<!-- X -->
<g id="node1" class="node"><title>X</title>
<polygon fill="none" stroke="black" points="165.368,-166.5 136.868,-166.5 136.868,-143.5 165.368,-143.5 165.368,-166.5"/>
<text text-anchor="middle" x="151.118" y="-151.3" font-family="Times,serif" font-size="14.00">X</text>
</g>
<!-- A -->
<g id="node2" class="node"><title>A</title>
<polygon fill="none" stroke="black" points="71.3684,-106.5 42.8684,-106.5 42.8684,-83.5 71.3684,-83.5 71.3684,-106.5"/>
<text text-anchor="middle" x="57.1184" y="-91.3" font-family="Times,serif" font-size="14.00">A</text>
</g>
<!-- X&#45;&gt;A -->
<g id="edge1" class="edge"><title>X&#45;&gt;A</title>
<path fill="none" stroke="black" d="M136.842,-145.191C121.797,-135.908 97.8701,-121.145 80.1501,-110.211"/>
<polygon fill="black" stroke="black" points="81.8776,-107.164 71.5293,-104.892 78.2018,-113.122 81.8776,-107.164"/>
</g>
<!-- B -->
<g id="node3" class="node"><title>B</title>
<polygon fill="none" stroke="black" points="118.368,-106.5 89.8684,-106.5 89.8684,-83.5 118.368,-83.5 118.368,-106.5"/>
<text text-anchor="middle" x="104.118" y="-91.3" font-family="Times,serif" font-size="14.00">B</text>
</g>
<!-- X&#45;&gt;B -->
<g id="edge3" class="edge"><title>X&#45;&gt;B</title>
<path fill="none" stroke="black" d="M142.498,-143.362C135.939,-135.268 126.753,-123.932 119.012,-114.38"/>
<polygon fill="black" stroke="black" points="121.699,-112.136 112.684,-106.571 116.261,-116.544 121.699,-112.136"/>
</g>
<!-- C -->
<g id="node4" class="node"><title>C</title>
<polygon fill="none" stroke="black" points="165.368,-106.5 136.868,-106.5 136.868,-83.5 165.368,-83.5 165.368,-106.5"/>
<text text-anchor="middle" x="151.118" y="-91.3" font-family="Times,serif" font-size="14.00">C</text>
</g>
<!-- X&#45;&gt;C -->
<g id="edge5" class="edge"><title>X&#45;&gt;C</title>
<path fill="none" stroke="black" d="M151.118,-143.362C151.118,-135.922 151.118,-125.743 151.118,-116.728"/>
<polygon fill="black" stroke="black" points="154.618,-116.571 151.118,-106.571 147.618,-116.571 154.618,-116.571"/>
</g>
<!-- D -->
<g id="node5" class="node"><title>D</title>
<polygon fill="none" stroke="black" points="212.368,-106.5 183.868,-106.5 183.868,-83.5 212.368,-83.5 212.368,-106.5"/>
<text text-anchor="middle" x="198.118" y="-91.3" font-family="Times,serif" font-size="14.00">D</text>
</g>
<!-- X&#45;&gt;D -->
<g id="edge7" class="edge"><title>X&#45;&gt;D</title>
<path fill="none" stroke="black" d="M159.739,-143.362C166.298,-135.268 175.484,-123.932 183.225,-114.38"/>
<polygon fill="black" stroke="black" points="185.976,-116.544 189.552,-106.571 180.537,-112.136 185.976,-116.544"/>
</g>
<!-- Y -->
<g id="node6" class="node"><title>Y</title>
<polygon fill="none" stroke="black" points="165.368,-46.5 136.868,-46.5 136.868,-23.5 165.368,-23.5 165.368,-46.5"/>
<text text-anchor="middle" x="151.118" y="-31.3" font-family="Times,serif" font-size="14.00">Y</text>
</g>
<!-- A&#45;&gt;Y -->
<g id="edge2" class="edge"><title>A&#45;&gt;Y</title>
<path fill="none" stroke="black" d="M71.3949,-85.191C86.4402,-75.9078 110.367,-61.1447 128.087,-50.2111"/>
<polygon fill="black" stroke="black" points="130.035,-53.1216 136.707,-44.8919 126.359,-47.1643 130.035,-53.1216"/>
</g>
<!-- B&#45;&gt;Y -->
<g id="edge4" class="edge"><title>B&#45;&gt;Y</title>
<path fill="none" stroke="black" d="M112.739,-83.3619C119.298,-75.2678 128.484,-63.9318 136.225,-54.3796"/>
<polygon fill="black" stroke="black" points="138.976,-56.5436 142.552,-46.5707 133.537,-52.1364 138.976,-56.5436"/>
</g>
<!-- C&#45;&gt;Y -->
<g id="edge6" class="edge"><title>C&#45;&gt;Y</title>
<path fill="none" stroke="black" d="M151.118,-83.3619C151.118,-75.9219 151.118,-65.7427 151.118,-56.7276"/>
<polygon fill="black" stroke="black" points="154.618,-56.5706 151.118,-46.5707 147.618,-56.5707 154.618,-56.5706"/>
</g>
<!-- D&#45;&gt;Y -->
<g id="edge8" class="edge"><title>D&#45;&gt;Y</title>
<path fill="none" stroke="black" d="M189.498,-83.3619C182.939,-75.2678 173.753,-63.9318 166.012,-54.3796"/>
<polygon fill="black" stroke="black" points="168.699,-52.1364 159.684,-46.5707 163.261,-56.5436 168.699,-52.1364"/>
</g>
<!-- Y&#45;&gt;X -->
<g id="edge9" class="edge"><title>Y&#45;&gt;X</title>
<path fill="none" stroke="black" d="M165.547,-40.9141C182.385,-47.52 209.412,-61.0406 221.118,-83 226.136,-92.4128 226.136,-97.5872 221.118,-107 211.424,-125.185 191.223,-137.583 175.002,-145.059"/>
<polygon fill="black" stroke="black" points="173.376,-141.948 165.547,-149.086 176.119,-148.388 173.376,-141.948"/>
</g>
</g>
</svg>
