<?xml version="1.0" encoding="UTF-8" standalone="no"?>
<!DOCTYPE svg PUBLIC "-//W3C//DTD SVG 1.1//EN"
 "http://www.w3.org/Graphics/SVG/1.1/DTD/svg11.dtd">
<!-- Generated by graphviz version 2.36.0 (20140111.2315)
 -->
<!-- Title: Z Pages: 1 -->
<svg width="544pt" height="267pt"
 viewBox="0.00 0.00 544.00 267.00" xmlns="http://www.w3.org/2000/svg" xmlns:xlink="http://www.w3.org/1999/xlink">
<g id="graph0" class="graph" transform="scale(1 1) rotate(0) translate(4 263)">
<title>Z</title>
<polygon fill="white" stroke="none" points="-4,4 -4,-263 540,-263 540,4 -4,4"/>
<g id="clust1" class="cluster"><title>cluster0</title>
<polygon fill="none" stroke="none" points="8,-8 8,-251 242,-251 242,-8 8,-8"/>
<text text-anchor="middle" x="125" y="-235.8" font-family="Times,serif" font-size="14.00">(F1) original cfg: A&#45;&gt;B&#45;&gt;C&#45;&gt;D</text>
</g>
<g id="clust2" class="cluster"><title>cluster1</title>
<polygon fill="none" stroke="none" points="250,-68 250,-251 528,-251 528,-68 250,-68"/>
<text text-anchor="middle" x="389" y="-235.8" font-family="Times,serif" font-size="14.00">(F2) flattened cfg: X&#45;&gt;{A,B,C,D}&#45;&gt;X</text>
</g>
<!-- oA -->
<g id="node1" class="node"><title>oA</title>
<polygon fill="none" stroke="black" points="139.25,-219.5 110.75,-219.5 110.75,-196.5 139.25,-196.5 139.25,-219.5"/>
<text text-anchor="middle" x="125" y="-204.3" font-family="Times,serif" font-size="14.00">A</text>
</g>
<!-- oB -->
<g id="node2" class="node"><title>oB</title>
<polygon fill="none" stroke="black" points="139.25,-159.5 110.75,-159.5 110.75,-136.5 139.25,-136.5 139.25,-159.5"/>
<text text-anchor="middle" x="125" y="-144.3" font-family="Times,serif" font-size="14.00">B</text>
</g>
<!-- oA&#45;&gt;oB -->
<g id="edge1" class="edge"><title>oA&#45;&gt;oB</title>
<path fill="none" stroke="black" d="M125,-196.362C125,-188.922 125,-178.743 125,-169.728"/>
<polygon fill="black" stroke="black" points="128.5,-169.571 125,-159.571 121.5,-169.571 128.5,-169.571"/>
</g>
<!-- oC -->
<g id="node3" class="node"><title>oC</title>
<polygon fill="none" stroke="black" points="139.25,-99.5 110.75,-99.5 110.75,-76.5 139.25,-76.5 139.25,-99.5"/>
<text text-anchor="middle" x="125" y="-84.3" font-family="Times,serif" font-size="14.00">C</text>
</g>
<!-- oB&#45;&gt;oC -->
<g id="edge2" class="edge"><title>oB&#45;&gt;oC</title>
<path fill="none" stroke="black" d="M125,-136.362C125,-128.922 125,-118.743 125,-109.728"/>
<polygon fill="black" stroke="black" points="128.5,-109.571 125,-99.5707 121.5,-109.571 128.5,-109.571"/>
</g>
<!-- oD -->
<g id="node4" class="node"><title>oD</title>
<polygon fill="none" stroke="black" points="139.25,-39.5 110.75,-39.5 110.75,-16.5 139.25,-16.5 139.25,-39.5"/>
<text text-anchor="middle" x="125" y="-24.3" font-family="Times,serif" font-size="14.00">D</text>
</g>
<!-- oC&#45;&gt;oD -->
<g id="edge3" class="edge"><title>oC&#45;&gt;oD</title>
<path fill="none" stroke="black" d="M125,-76.3619C125,-68.9219 125,-58.7427 125,-49.7276"/>
<polygon fill="black" stroke="black" points="128.5,-49.5706 125,-39.5707 121.5,-49.5707 128.5,-49.5706"/>
</g>
<!-- X -->
<g id="node5" class="node"><title>X</title>
<polygon fill="none" stroke="black" points="416.25,-219.5 387.75,-219.5 387.75,-196.5 416.25,-196.5 416.25,-219.5"/>
<text text-anchor="middle" x="402" y="-204.3" font-family="Times,serif" font-size="14.00">X</text>
</g>
<!-- A -->
<g id="node6" class="node"><title>A</title>
<polygon fill="none" stroke="black" points="322.25,-159.5 293.75,-159.5 293.75,-136.5 322.25,-136.5 322.25,-159.5"/>
<text text-anchor="middle" x="308" y="-144.3" font-family="Times,serif" font-size="14.00">A</text>
</g>
<!-- X&#45;&gt;A -->
<g id="edge4" class="edge"><title>X&#45;&gt;A</title>
<path fill="none" stroke="black" d="M387.723,-198.191C372.678,-188.908 348.752,-174.145 331.032,-163.211"/>
<polygon fill="black" stroke="black" points="332.759,-160.164 322.411,-157.892 329.083,-166.122 332.759,-160.164"/>
</g>
<!-- B -->
<g id="node7" class="node"><title>B</title>
<polygon fill="none" stroke="black" points="369.25,-159.5 340.75,-159.5 340.75,-136.5 369.25,-136.5 369.25,-159.5"/>
<text text-anchor="middle" x="355" y="-144.3" font-family="Times,serif" font-size="14.00">B</text>
</g>
<!-- X&#45;&gt;B -->
<g id="edge6" class="edge"><title>X&#45;&gt;B</title>
<path fill="none" stroke="black" d="M393.379,-196.362C386.82,-188.268 377.634,-176.932 369.894,-167.38"/>
<polygon fill="black" stroke="black" points="372.581,-165.136 363.566,-159.571 367.142,-169.544 372.581,-165.136"/>
</g>
<!-- C -->
<g id="node8" class="node"><title>C</title>
<polygon fill="none" stroke="black" points="416.25,-159.5 387.75,-159.5 387.75,-136.5 416.25,-136.5 416.25,-159.5"/>
<text text-anchor="middle" x="402" y="-144.3" font-family="Times,serif" font-size="14.00">C</text>
</g>
<!-- X&#45;&gt;C -->
<g id="edge8" class="edge"><title>X&#45;&gt;C</title>
<path fill="none" stroke="black" d="M402,-196.362C402,-188.922 402,-178.743 402,-169.728"/>
<polygon fill="black" stroke="black" points="405.5,-169.571 402,-159.571 398.5,-169.571 405.5,-169.571"/>
</g>
<!-- D -->
<g id="node9" class="node"><title>D</title>
<polygon fill="none" stroke="black" points="463.25,-159.5 434.75,-159.5 434.75,-136.5 463.25,-136.5 463.25,-159.5"/>
<text text-anchor="middle" x="449" y="-144.3" font-family="Times,serif" font-size="14.00">D</text>
</g>
<!-- X&#45;&gt;D -->
<g id="edge10" class="edge"><title>X&#45;&gt;D</title>
<path fill="none" stroke="black" d="M410.621,-196.362C417.18,-188.268 426.366,-176.932 434.106,-167.38"/>
<polygon fill="black" stroke="black" points="436.858,-169.544 440.434,-159.571 431.419,-165.136 436.858,-169.544"/>
</g>
<!-- Y -->
<g id="node10" class="node"><title>Y</title>
<polygon fill="none" stroke="black" points="416.25,-99.5 387.75,-99.5 387.75,-76.5 416.25,-76.5 416.25,-99.5"/>
<text text-anchor="middle" x="402" y="-84.3" font-family="Times,serif" font-size="14.00">Y</text>
</g>
<!-- A&#45;&gt;Y -->
<g id="edge5" class="edge"><title>A&#45;&gt;Y</title>
<path fill="none" stroke="black" d="M322.277,-138.191C337.322,-128.908 361.248,-114.145 378.968,-103.211"/>
<polygon fill="black" stroke="black" points="380.917,-106.122 387.589,-97.8919 377.241,-100.164 380.917,-106.122"/>
</g>
<!-- B&#45;&gt;Y -->
<g id="edge7" class="edge"><title>B&#45;&gt;Y</title>
<path fill="none" stroke="black" d="M363.621,-136.362C370.18,-128.268 379.366,-116.932 387.106,-107.38"/>
<polygon fill="black" stroke="black" points="389.858,-109.544 393.434,-99.5707 384.419,-105.136 389.858,-109.544"/>
</g>
<!-- C&#45;&gt;Y -->
<g id="edge9" class="edge"><title>C&#45;&gt;Y</title>
<path fill="none" stroke="black" d="M402,-136.362C402,-128.922 402,-118.743 402,-109.728"/>
<polygon fill="black" stroke="black" points="405.5,-109.571 402,-99.5707 398.5,-109.571 405.5,-109.571"/>
</g>
<!-- D&#45;&gt;Y -->
<g id="edge11" class="edge"><title>D&#45;&gt;Y</title>
<path fill="none" stroke="black" d="M440.379,-136.362C433.82,-128.268 424.634,-116.932 416.894,-107.38"/>
<polygon fill="black" stroke="black" points="419.581,-105.136 410.566,-99.5707 414.142,-109.544 419.581,-105.136"/>
</g>
<!-- Y&#45;&gt;X -->
<g id="edge12" class="edge"><title>Y&#45;&gt;X</title>
<path fill="none" stroke="black" d="M416.429,-93.9141C433.267,-100.52 460.294,-114.041 472,-136 477.018,-145.413 477.018,-150.587 472,-160 462.306,-178.185 442.105,-190.583 425.884,-198.059"/>
<polygon fill="black" stroke="black" points="424.258,-194.948 416.429,-202.086 427,-201.388 424.258,-194.948"/>
</g>
</g>
</svg>
